<svg id="OBJECT" height="512" viewBox="0 0 512 512" width="512" xmlns="http://www.w3.org/2000/svg"><path d="m511.5 369.21-56-146.32a7.5 7.5 0 0 0 -9.5-4.39l-59 21.05a7.52 7.52 0 0 0 -4.46 9.83l5.13 13-40.26 19.12-66.08-12.41a47.6 47.6 0 0 0 -37.08 8.54l-11.81 8.76-7.82-5.63a47.81 47.81 0 0 0 -41.31-7l-25.36 7.55-33.22-19.86 4.77-12.06a7.52 7.52 0 0 0 -4.46-9.83l-59.04-21.06a7.5 7.5 0 0 0 -9.52 4.39l-55.98 146.32a7.49 7.49 0 0 0 4 9.56l56 24.13a7.5 7.5 0 0 0 9.95-4.13l5.64-14.27 46.42 26.16a23.62 23.62 0 0 0 2.72 30.07 23.51 23.51 0 0 0 16.68 6.89h.59a23.56 23.56 0 0 0 23.5 21.46h.61a23.46 23.46 0 0 0 6.8 14.59 23.51 23.51 0 0 0 16.68 6.89h.59a23.58 23.58 0 0 0 40.17 14.58l8.91-8.9 12.06 9a26.43 26.43 0 0 0 34.58-2.6l.85-.86a26.5 26.5 0 0 0 7.2-14.13 26.41 26.41 0 0 0 25.82-6.71l.62-.62a26.26 26.26 0 0 0 7.54-15.61 26.25 26.25 0 0 0 26.11-6.65l.42-.42a26 26 0 0 0 7.48-15.11 26.36 26.36 0 0 0 32.39-27.77 26.47 26.47 0 0 0 -.83-4.76l43.59-21.34 4 10.08a7.48 7.48 0 0 0 9.95 4.13l56-24.13a7.49 7.49 0 0 0 3.96-9.53zm-452.17 16.86-42.25-18.22 50.77-132.75 12.45 4.43-24 68.22a7.5 7.5 0 1 0 14.16 5l23.94-68.15 18.25 6.51zm88.67 44.05a8.59 8.59 0 0 1 -12.17-12.12l16-16a8.6 8.6 0 0 1 14.67 6.08 8.5 8.5 0 0 1 -2.52 6.07zm25.42 20.16c-.45.44-.85.91-1.25 1.38l-.08-.09a8.59 8.59 0 1 1 -12.15-12.14l14.68-14.67c.44-.44.86-.9 1.26-1.37l.07.07a8.59 8.59 0 0 1 12.15 12.14zm22.72 22.72a8.59 8.59 0 0 1 -12.14-12.12l16-16a8.59 8.59 0 1 1 12.13 12.12zm40.08 5.46-16 16a8.59 8.59 0 0 1 -12.15-12.14l14.68-14.67c.44-.44.86-.9 1.26-1.37l.07.07a8.59 8.59 0 0 1 12.15 12.14zm140.36-53.6a11.27 11.27 0 0 1 -15.28.69l-5.85-4.87a7.52 7.52 0 0 0 -1.46-1.58l-13.49-10.84a7.5 7.5 0 0 0 -9.41 11.67l11.64 9.39a8 8 0 0 0 1.1 1.23 11.32 11.32 0 0 1 .5 16.48l-.42.42a11.31 11.31 0 0 1 -14.62 1.2l-11.59-8.3-.12-.09-4.38-3.13a7.5 7.5 0 0 0 -8.73 12.2l4.46 3.19a11.33 11.33 0 0 1 1.33 17.18l-.62.62a11.35 11.35 0 0 1 -15.52.49l-12.5-11a7.5 7.5 0 1 0 -9.92 11.19l4.25 3.76a11.33 11.33 0 0 1 .59 16.46l-.85.86a11.38 11.38 0 0 1 -14.89 1.12l-10.8-8.06a23.59 23.59 0 0 0 -19.87-36.31h-.59a23.58 23.58 0 0 0 -23.49-21.47h-.61a23.51 23.51 0 0 0 -24.06-21.36 23.35 23.35 0 0 0 -6.81-14.58 23.61 23.61 0 0 0 -33.36 0l-8.07 8.06-51.5-29 37.48-94.84 33.94 20.29a7.5 7.5 0 0 0 6 .75l28.52-8.49a32.71 32.71 0 0 1 28.27 4.77l3.94 2.84-40.09 29.75a23.86 23.86 0 0 0 -.18 38.18 34.56 34.56 0 0 0 39 1.71l31.48-19.81c3.66 7.3 10.5 17.22 22.38 23.33 13.77 7.08 30.51 7.26 49.81.54l53 38.17a11.35 11.35 0 0 1 1.39 17.22zm9.64-27.76-58.49-42.1a7.51 7.51 0 0 0 -7.1-.9c-16.7 6.48-30.57 7-41.25 1.59-14.14-7.19-18.47-22.91-18.51-23a7.5 7.5 0 0 0 -11.25-4.5l-39.08 24.51a19.46 19.46 0 0 1 -22-1 8.84 8.84 0 0 1 .07-14.16l64.54-47.9a32.58 32.58 0 0 1 25.37-5.84l68.48 12.86a7.44 7.44 0 0 0 4.6-.59l41.56-19.74 38.87 98.36zm66.45-11.06-53.35-135 18.26-6.51 23.93 68.15a7.5 7.5 0 0 0 14.16-5l-24-68.22 12.45-4.43 50.77 132.75z"/><path d="m256 235a117.5 117.5 0 1 0 -117.5-117.5 117.63 117.63 0 0 0 117.5 117.5zm0-220a102.5 102.5 0 1 1 -102.5 102.5 102.61 102.61 0 0 1 102.5-102.5z"/><path d="m256 205a87.5 87.5 0 1 0 -87.5-87.5 87.6 87.6 0 0 0 87.5 87.5zm0-160a72.5 72.5 0 1 1 -72.5 72.5 72.58 72.58 0 0 1 72.5-72.5z"/><path d="m406.94 117.5a7.5 7.5 0 0 0 7.5 7.5h41.56a7.5 7.5 0 0 0 0-15h-41.56a7.5 7.5 0 0 0 -7.5 7.5z"/><path d="m398.86 83.31a7.5 7.5 0 0 0 3.8-1l31.16-18.31a7.5 7.5 0 0 0 -7.59-13l-31.17 18.34a7.5 7.5 0 0 0 3.8 14z"/><path d="m395.06 165.66 31.17 18.34a7.5 7.5 0 0 0 7.59-13l-31.16-18.3a7.5 7.5 0 1 0 -7.6 12.93z"/><path d="m56 125h41.56a7.5 7.5 0 0 0 0-15h-41.56a7.5 7.5 0 0 0 0 15z"/><path d="m78.18 64 31.16 18.3a7.5 7.5 0 1 0 7.6-12.93l-31.17-18.37a7.5 7.5 0 0 0 -7.59 13z"/><path d="m109.34 152.73-31.16 18.27a7.5 7.5 0 0 0 7.59 13l31.17-18.31a7.5 7.5 0 1 0 -7.6-12.93z"/><path d="m239.17 150.12a7.51 7.51 0 0 0 11 0l51.34-55a7.5 7.5 0 0 0 -11-10.24l-45.85 49.12-23.18-24.83a7.5 7.5 0 1 0 -11 10.24z"/></svg>