<?xml version="1.0" encoding="utf-8"?>
<!-- Generator: Adobe Illustrator 28.2.0, SVG Export Plug-In . SVG Version: 6.00 Build 0)  -->
<svg version="1.1" id="OBJECT" xmlns="http://www.w3.org/2000/svg" xmlns:xlink="http://www.w3.org/1999/xlink" x="0px" y="0px"
	 viewBox="0 0 512 512" style="enable-background:new 0 0 512 512;" xml:space="preserve">
<style type="text/css">
	.st0{fill:#EC6A2A;}
</style>
<circle class="st0" cx="256" cy="117.5" r="80.9"/>
<polygon class="st0" points="64.9,225.4 120.7,247.3 64.9,399.5 5.9,374.4 "/>
<polygon class="st0" points="392.7,248.3 448.6,226.7 510.3,376.6 449.9,398 "/>
<path d="M511.5,369.2l-56-146.3c-1.5-3.8-5.7-5.7-9.5-4.4l-59,21.1c-3.9,1.4-5.9,5.7-4.5,9.6c0,0.1,0.1,0.1,0.1,0.2l5.1,13
	l-40.3,19.1l-66.1-12.4c-13-2.4-26.4,0.7-37.1,8.5l-11.8,8.8l-7.8-5.6c-12-8.6-27.2-11.1-41.3-7l-25.4,7.5l-33.2-19.9l4.8-12.1
	c1.5-3.9-0.4-8.2-4.2-9.8c-0.1,0-0.1-0.1-0.2-0.1l-59-21.1c-3.8-1.4-8.1,0.6-9.5,4.4l-56,146.3c-1.4,3.7,0.3,8,4,9.6l56,24.1
	c3.8,1.6,8.2-0.1,9.9-3.9c0-0.1,0.1-0.1,0.1-0.2l5.6-14.3l46.4,26.2c-6.5,9.4-5.3,22,2.7,30.1c4.4,4.4,10.4,6.9,16.7,6.9h0.6
	c1.1,12.2,11.3,21.5,23.5,21.5h0.6c0.5,5.5,2.9,10.7,6.8,14.6c4.4,4.4,10.4,6.9,16.7,6.9h0.6c1.2,13,12.6,22.6,25.6,21.4
	c5.5-0.5,10.7-2.9,14.6-6.8l8.9-8.9l12.1,9c10.6,7.9,25.3,6.8,34.6-2.6l0.9-0.9c3.8-3.9,6.3-8.8,7.2-14.1c9.2,2.6,19.1,0,25.8-6.7
	l0.6-0.6c4.2-4.2,6.9-9.7,7.5-15.6c9.3,2.8,19.3,0.2,26.1-6.6l0.4-0.4c4.1-4.1,6.7-9.4,7.5-15.1c14.2,3.4,28.4-5.4,31.8-19.5
	c0.6-2.7,0.9-5.5,0.6-8.2c-0.1-1.6-0.4-3.2-0.8-4.8l43.6-21.3l4,10.1c1.5,3.8,5.8,5.7,9.7,4.2c0.1,0,0.2-0.1,0.3-0.1l56-24.1
	C511.2,377.1,512.9,372.9,511.5,369.2L511.5,369.2z M59.3,386.1l-42.2-18.2l50.8-132.8l12.4,4.4l-24,68.2c-1.4,3.9,0.7,8.2,4.6,9.6
	c3.9,1.4,8.2-0.7,9.6-4.6l23.9-68.1l18.2,6.5L59.3,386.1z M148,430.1c-3.4,3.3-8.9,3.2-12.1-0.2c-3.2-3.3-3.2-8.5,0-11.9l16-16
	c3.4-3.4,8.8-3.3,12.2,0c1.6,1.6,2.5,3.8,2.5,6.1c0,2.3-0.9,4.5-2.5,6.1L148,430.1z M173.4,450.3c-0.4,0.4-0.9,0.9-1.2,1.4l-0.1-0.1
	c-3.3,3.4-8.7,3.6-12.1,0.3c-3.4-3.3-3.6-8.7-0.3-12.1c0.1-0.1,0.2-0.2,0.3-0.3l14.7-14.7c0.4-0.4,0.9-0.9,1.3-1.4l0.1,0.1
	c3.4-3.3,8.9-3.2,12.1,0.3c3.2,3.3,3.2,8.5,0,11.9L173.4,450.3z M196.1,473c-3.5,3.2-9,2.9-12.1-0.7c-2.9-3.3-2.9-8.2,0-11.5l16-16
	c3.1-3.6,8.6-3.9,12.1-0.8c3.6,3.1,3.9,8.6,0.8,12.1c-0.2,0.3-0.5,0.5-0.7,0.7L196.1,473z M236.2,478.5l-16,16
	c-3.4,3.3-8.9,3.2-12.1-0.3c-3.2-3.3-3.2-8.5,0-11.9l14.7-14.7c0.4-0.4,0.9-0.9,1.3-1.4l0.1,0.1c3.4-3.3,8.9-3.2,12.1,0.3
	C239.4,469.9,239.4,475.2,236.2,478.5L236.2,478.5z M376.6,424.9c-4.1,4.2-10.8,4.5-15.3,0.7l-5.9-4.9c-0.4-0.6-0.9-1.1-1.5-1.6
	l-13.5-10.8c-3.3-2.5-8-1.8-10.5,1.5c-2.4,3.2-1.9,7.6,1.1,10.2l11.6,9.4c0.3,0.4,0.7,0.9,1.1,1.2c4.7,4.1,5.1,11.3,1,16
	c-0.2,0.2-0.3,0.3-0.5,0.5l-0.4,0.4c-3.9,3.9-10.1,4.4-14.6,1.2l-11.6-8.3l-0.1-0.1l-4.4-3.1c-3.4-2.4-8.1-1.6-10.5,1.7
	c-2.4,3.4-1.6,8.1,1.7,10.5l4.5,3.2c5.1,3.7,6.2,10.8,2.5,15.8c-0.3,0.5-0.7,0.9-1.2,1.4l-0.6,0.6c-4.2,4.2-11,4.4-15.5,0.5
	l-12.5-11c-2.9-3-7.6-3.1-10.6-0.2c-3,2.9-3.1,7.6-0.2,10.6c0.3,0.3,0.6,0.5,0.9,0.8l4.2,3.8c4.7,4.1,5.2,11.3,1,16
	c-0.1,0.2-0.3,0.3-0.4,0.5l-0.9,0.9c-4,4-10.3,4.5-14.9,1.1l-10.8-8.1c7-11,3.8-25.6-7.1-32.6c-3.8-2.4-8.2-3.7-12.7-3.7h-0.6
	c-1.1-12.2-11.3-21.5-23.5-21.5h-0.6c-1.1-12.4-11.7-21.7-24.1-21.4c-0.5-5.5-2.9-10.7-6.8-14.6c-9.2-9.2-24.1-9.2-33.4,0l-8.1,8.1
	l-51.5-29l37.5-94.8l33.9,20.3c1.8,1.1,4,1.4,6,0.8l28.5-8.5c9.7-2.8,20.1-1.1,28.3,4.8l3.9,2.8l-40.1,29.8
	c-10.6,7.9-12.8,22.8-4.9,33.4c1.3,1.8,3,3.4,4.8,4.8c11.4,8.6,26.9,9.2,39,1.7l31.5-19.8c3.7,7.3,10.5,17.2,22.4,23.3
	c13.8,7.1,30.5,7.3,49.8,0.5l53,38.2c5.1,3.7,6.2,10.8,2.6,15.8C377.4,424,377,424.5,376.6,424.9L376.6,424.9z M386.2,397.1
	L327.7,355c-2.1-1.5-4.7-1.8-7.1-0.9c-16.7,6.5-30.6,7-41.2,1.6c-14.1-7.2-18.5-22.9-18.5-23c-1-4-5.1-6.4-9.1-5.4
	c-0.8,0.2-1.5,0.5-2.1,0.9l-39.1,24.5c-6.8,4.2-15.6,3.8-22-1c-3.9-2.9-4.7-8.5-1.7-12.4c0.5-0.7,1.1-1.3,1.8-1.8l64.5-47.9
	c7.3-5.4,16.5-7.5,25.4-5.8l68.5,12.9c1.6,0.3,3.2,0.1,4.6-0.6l41.6-19.7l38.9,98.4L386.2,397.1z M452.7,386l-53.4-135l18.3-6.5
	l23.9,68.2c1.4,3.9,5.7,6,9.6,4.6c3.9-1.4,6-5.7,4.6-9.6l-24-68.2l12.5-4.4l50.8,132.8L452.7,386z"/>
<path d="M256,235c64.9,0,117.5-52.6,117.5-117.5S320.9,0,256,0S138.5,52.6,138.5,117.5C138.6,182.4,191.1,234.9,256,235z M256,15
	c56.6,0,102.5,45.9,102.5,102.5S312.6,220,256,220s-102.5-45.9-102.5-102.5C153.6,60.9,199.4,15.1,256,15z"/>
<path d="M256,205c48.3,0,87.5-39.2,87.5-87.5S304.3,30,256,30s-87.5,39.2-87.5,87.5C168.6,165.8,207.7,204.9,256,205z M256,45
	c40,0,72.5,32.5,72.5,72.5S296,190,256,190s-72.5-32.5-72.5-72.5C183.5,77.5,216,45,256,45z"/>
<path d="M406.9,117.5c0,4.1,3.4,7.5,7.5,7.5l0,0H456c4.1,0,7.5-3.4,7.5-7.5s-3.4-7.5-7.5-7.5h-41.6
	C410.3,110,406.9,113.4,406.9,117.5L406.9,117.5z"/>
<path d="M398.9,83.3c1.3,0,2.6-0.3,3.8-1L433.8,64c3.6-2.1,4.8-6.7,2.7-10.3c-2.1-3.6-6.7-4.8-10.3-2.7l-31.2,18.3
	c-3.6,2.1-4.8,6.7-2.8,10.2C393.6,81.9,396.2,83.4,398.9,83.3L398.9,83.3z"/>
<path d="M395.1,165.7l31.2,18.3c3.6,2.1,8.2,0.9,10.3-2.7c2.1-3.6,0.9-8.2-2.7-10.3l0,0l-31.2-18.3c-3.5-2.2-8.2-1-10.3,2.5
	s-1,8.2,2.5,10.3C394.9,165.6,395,165.6,395.1,165.7L395.1,165.7z"/>
<path d="M56,125h41.6c4.1,0,7.5-3.4,7.5-7.5s-3.4-7.5-7.5-7.5H56c-4.1,0-7.5,3.4-7.5,7.5S51.9,125,56,125z"/>
<path d="M78.2,64l31.2,18.3c3.5,2.2,8.2,1,10.3-2.5c2.2-3.5,1-8.2-2.5-10.3c-0.1,0-0.1-0.1-0.2-0.1L85.8,51
	c-3.6-2.1-8.2-0.9-10.3,2.7C73.4,57.3,74.6,61.9,78.2,64C78.2,64,78.2,64,78.2,64z"/>
<path d="M109.3,152.7L78.2,171c-3.6,2.1-4.8,6.7-2.7,10.3s6.7,4.8,10.3,2.7l31.2-18.3c3.6-2,4.9-6.6,2.8-10.2
	c-2-3.6-6.6-4.9-10.2-2.8C109.5,152.7,109.4,152.7,109.3,152.7L109.3,152.7z"/>
<path d="M239.2,150.1c2.8,3,7.6,3.2,10.6,0.4c0.1-0.1,0.3-0.3,0.4-0.4l51.3-55c2.8-3,2.7-7.8-0.4-10.6c-3-2.8-7.8-2.7-10.6,0.4
	L244.7,134l-23.2-24.8c-2.8-3-7.6-3.2-10.6-0.4c-3,2.8-3.2,7.6-0.4,10.6l0,0L239.2,150.1z"/>
</svg>
