<svg id="Icons" height="512" viewBox="0 0 60 60" width="512" xmlns="http://www.w3.org/2000/svg"><path d="m47 29a2.015 2.015 0 0 0 2-2 2.006 2.006 0 0 0 -2-2h-34a12 12 0 0 1 -12-12.22 12.264 12.264 0 0 1 12.4-11.78h44.6a1 1 0 0 1 1 1v8a1 1 0 0 1 -1 1h-45a2.015 2.015 0 0 0 -2 2 2.006 2.006 0 0 0 2 2h34a12 12 0 0 1 12 12.22 12.264 12.264 0 0 1 -12.4 11.78h-44.6a1 1 0 0 1 -1-1v-8a1 1 0 0 1 1-1z" fill="#5e5e5e"/><path d="m40 43a5 5 0 0 1 5 5v9a2 2 0 0 1 -2 2h-26a2 2 0 0 1 -2-2v-9a5 5 0 0 1 5-5z" fill="#fcc10a"/><path d="m35 39.89v3.11a5 5 0 0 1 -10 0v-3.11z" fill="#e2ac7f"/><path d="m37 32v3a7 7 0 0 1 -7 7 7 7 0 0 1 -7-7v-3z" fill="#eebd91"/><path d="m39 31v1h-18v-1a8.983 8.983 0 0 1 5-8.06 8.676 8.676 0 0 1 2-.72v-.22a1 1 0 0 1 1-1h2a1 1 0 0 1 1 1v.22a9.3 9.3 0 0 1 4.36 2.42 8.954 8.954 0 0 1 2.64 6.36z" fill="#fcc10a"/><path d="m39 59v-16h-4v7a2 2 0 0 1 -2 2h-6a2 2 0 0 1 -2-2v-7h-4v16z" fill="#346d92"/><g fill="#fcc10a"><path d="m55 7h-4a1 1 0 0 1 0-2h4a1 1 0 0 1 0 2z"/><path d="m45 7h-4a1 1 0 0 1 0-2h4a1 1 0 0 1 0 2z"/><path d="m41 21h-4a1 1 0 0 1 0-2h4a1 1 0 0 1 0 2z"/><path d="m35 7h-4a1 1 0 0 1 0-2h4a1 1 0 0 1 0 2z"/><path d="m25 7h-4a1 1 0 0 1 0-2h4a1 1 0 0 1 0 2z"/><path d="m23 21h-4a1 1 0 0 1 0-2h4a1 1 0 0 1 0 2z"/><path d="m11 7.29a1 1 0 0 1 -.285-1.959 8.014 8.014 0 0 1 2.285-.331h2a1 1 0 0 1 0 2h-2a6.015 6.015 0 0 0 -1.715.249 1.044 1.044 0 0 1 -.285.041z"/><path d="m6.29 12a1.05 1.05 0 0 1 -.285-.041 1 1 0 0 1 -.674-1.244 7.926 7.926 0 0 1 1.1-2.288 1 1 0 1 1 1.643 1.146 5.967 5.967 0 0 0 -.825 1.712 1 1 0 0 1 -.959.715z"/><path d="m7.256 18a1 1 0 0 1 -.82-.427 7.926 7.926 0 0 1 -1.1-2.288 1 1 0 0 1 1.918-.57 5.967 5.967 0 0 0 .825 1.712 1 1 0 0 1 -.823 1.573z"/><path d="m14 21h-1a8.014 8.014 0 0 1 -2.285-.331 1 1 0 0 1 .57-1.918 6.015 6.015 0 0 0 1.715.249h1a1 1 0 0 1 0 2z"/><path d="m10.29 35h-4a1 1 0 1 1 0-2h4a1 1 0 0 1 0 2z"/><path d="m16 35h-1a1 1 0 0 1 0-2h1a1 1 0 0 1 0 2z"/><path d="m48.29 35h-2a1 1 0 1 1 0-2h2a6.015 6.015 0 0 0 1.715-.249 1 1 0 0 1 .57 1.918 8.014 8.014 0 0 1 -2.285.331z"/><path d="m54.034 32a1 1 0 0 1 -.819-1.572 5.96 5.96 0 0 0 .826-1.713 1 1 0 0 1 1.918.57 7.954 7.954 0 0 1 -1.1 2.287 1 1 0 0 1 -.825.428z"/><path d="m55 26a1 1 0 0 1 -.959-.715 5.96 5.96 0 0 0 -.826-1.713 1 1 0 0 1 1.64-1.144 7.954 7.954 0 0 1 1.1 2.287 1 1 0 0 1 -.674 1.244 1.05 1.05 0 0 1 -.281.041z"/><path d="m50.29 21.29a1.05 1.05 0 0 1 -.285-.041 6.015 6.015 0 0 0 -1.715-.249h-2a1 1 0 1 1 0-2h2a8.014 8.014 0 0 1 2.285.331 1 1 0 0 1 -.285 1.959z"/></g><path d="m34 22.95v4.05a1 1 0 0 1 -2 0v-4.78a8.7 8.7 0 0 1 2 .73z" fill="#f5ab01"/><path d="m28 22.22v4.78a1 1 0 0 1 -2 0v-4.06a8.676 8.676 0 0 1 2-.72z" fill="#f5ab01"/><path d="m40 33h-20a1 1 0 0 1 0-2h20a1 1 0 0 1 0 2z" fill="#f28f02"/></svg>