<?xml version="1.0" encoding="utf-8"?>
<!-- Generator: Adobe Illustrator 28.2.0, SVG Export Plug-In . SVG Version: 6.00 Build 0)  -->
<svg version="1.1" id="Capa_1" xmlns="http://www.w3.org/2000/svg" xmlns:xlink="http://www.w3.org/1999/xlink" x="0px" y="0px"
	 viewBox="0 0 512 512" style="enable-background:new 0 0 512 512;" xml:space="preserve">
<style type="text/css">
	.st0{fill:#EC6A2A;}
</style>
<circle class="st0" cx="69.3" cy="148.1" r="28.3"/>
<circle class="st0" cx="256" cy="40.4" r="28.3"/>
<circle class="st0" cx="442.7" cy="148.1" r="28.3"/>
<circle class="st0" cx="442.7" cy="362.8" r="28.3"/>
<circle class="st0" cx="256" cy="471.6" r="28.3"/>
<circle class="st0" cx="69.3" cy="363.8" r="28.3"/>
<circle class="st0" cx="256" cy="210.9" r="36.2"/>
<circle class="st0" cx="202.8" cy="179.3" r="36.2"/>
<circle class="st0" cx="307.7" cy="179.3" r="36.2"/>
<g>
	<g>
		<path d="M341.1,213.8c8.5-8.4,13.8-20.2,13.8-33.1c0-25.7-20.9-46.6-46.6-46.6c-19.8,0-37.3,12.5-43.9,30.9
			c-2.7-0.5-5.6-0.8-8.5-0.8c-2.9,0-5.7,0.3-8.5,0.8c-6.5-18.4-24.1-30.9-43.9-30.9c-25.7,0-46.6,20.9-46.6,46.6
			c0,12.9,5.3,24.6,13.8,33.1c-20.5,11.7-33.6,33.7-33.6,57.7c0,4.1,3.4,7.5,7.5,7.5c4.1,0,7.5-3.4,7.5-7.5
			c0-21.2,13.3-40.5,33.1-48c5.6,2.4,11.8,3.8,18.3,3.8c2.9,0,5.7-0.3,8.5-0.8c2.4,6.6,6.2,12.6,11.1,17.4
			c-20.7,11.7-33.6,33.6-33.6,57.7c0,4.1,3.4,7.5,7.5,7.5c4.1,0,7.5-3.4,7.5-7.5c0-20.7,12.3-39.3,31.4-47.3c0.5-0.2,1-0.5,1.4-0.8
			c5.7,2.5,12,3.9,18.6,3.9c6.5,0,12.7-1.3,18.3-3.8c19.8,7.6,33.1,26.8,33.1,48c0,4.1,3.4,7.5,7.5,7.5s7.5-3.4,7.5-7.5
			c0-24-13.2-46.1-33.6-57.7c4.9-4.9,8.7-10.8,11.1-17.4c2.8,0.5,5.6,0.8,8.5,0.8c6.5,0,12.7-1.3,18.3-3.8
			c19.8,7.6,33.1,26.8,33.1,48c0,4.1,3.4,7.5,7.5,7.5s7.5-3.4,7.5-7.5C374.7,247.5,361.5,225.5,341.1,213.8L341.1,213.8z
			 M209.4,210.9c0,0.3,0,0.6,0,0.9c-1.9,0.4-3.8,0.5-5.8,0.5c-17.4,0-31.6-14.2-31.6-31.6c0-17.4,14.2-31.6,31.6-31.6
			c13.4,0,25.3,8.5,29.7,21C219.1,178.1,209.4,193.4,209.4,210.9z M224.4,210.9c0-17.4,14.2-31.6,31.6-31.6
			c17.4,0,31.6,14.2,31.6,31.6s-14.2,31.6-31.6,31.6S224.4,228.3,224.4,210.9L224.4,210.9z M302.5,211.8c0-0.3,0-0.6,0-0.9
			c0-17.5-9.7-32.7-24-40.7c4.4-12.5,16.3-21,29.7-21c17.4,0,31.6,14.2,31.6,31.6c0,17.4-14.2,31.6-31.6,31.6
			C306.4,212.3,304.4,212.1,302.5,211.8z"/>
		<path d="M450.2,324.1V187.8c18.7-3.5,32.9-20,32.9-39.7c0-22.3-18.1-40.4-40.4-40.4c-12.2,0-23.2,5.5-30.6,14.1l-118-68.1
			c1.5-4.2,2.3-8.7,2.3-13.3C296.4,18.1,278.3,0,256,0s-40.4,18.1-40.4,40.4c0,4.7,0.8,9.2,2.3,13.3l-118,68.1
			c-7.4-8.6-18.4-14.1-30.6-14.1c-22.3,0-40.4,18.1-40.4,40.4c0,19.7,14.2,36.1,32.9,39.7v136.3c-18.7,3.5-32.9,20-32.9,39.7
			c0,22.3,18.1,40.4,40.4,40.4c12.2,0,23.2-5.5,30.6-14.1l118,68.1c-1.5,4.2-2.3,8.7-2.3,13.3c0,22.3,18.1,40.4,40.4,40.4
			s40.4-18.1,40.4-40.4c0-4.7-0.8-9.2-2.3-13.3l118-68.1c7.4,8.6,18.4,14.1,30.6,14.1c22.3,0,40.4-18.1,40.4-40.4
			C483.1,344.1,468.9,327.7,450.2,324.1L450.2,324.1z M442.7,122.7c14,0,25.4,11.4,25.4,25.4c0,14-11.4,25.4-25.4,25.4
			c-14,0-25.4-11.4-25.4-25.4C417.3,134.1,428.7,122.7,442.7,122.7z M256,15c14,0,25.4,11.4,25.4,25.4c0,14-11.4,25.4-25.3,25.4
			c0,0,0,0,0,0s0,0,0,0c-14,0-25.3-11.4-25.3-25.4C230.6,26.4,242,15,256,15L256,15z M43.9,148.1c0-14,11.4-25.4,25.4-25.4
			s25.4,11.4,25.4,25.4c0,14-11.4,25.4-25.4,25.4S43.9,162.1,43.9,148.1z M69.3,389.2c-14,0-25.4-11.4-25.4-25.4
			c0-14,11.4-25.4,25.4-25.4s25.4,11.4,25.4,25.4C94.7,377.8,83.3,389.2,69.3,389.2z M256,497c-14,0-25.4-11.4-25.4-25.4
			c0-14,11.4-25.4,25.4-25.4c14,0,25.4,11.4,25.4,25.4C281.4,485.6,270,497,256,497z M286.6,445.3c-5.9-6.8-13.9-11.6-23.1-13.4V403
			c0-4.1-3.4-7.5-7.5-7.5s-7.5,3.4-7.5,7.5v28.9c-9.2,1.7-17.2,6.6-23.1,13.4l-118-68.1c1.5-4.2,2.3-8.7,2.3-13.3
			c0-4.7-0.8-9.2-2.3-13.4l25-14.5c3.6-2.1,4.8-6.7,2.7-10.2c-2.1-3.6-6.7-4.8-10.2-2.7l-25.1,14.5c-5.9-6.8-13.9-11.6-23.1-13.3
			V187.8c9.2-1.7,17.2-6.6,23.1-13.4l25.1,14.5c1.2,0.7,2.5,1,3.7,1c2.6,0,5.1-1.3,6.5-3.8c2.1-3.6,0.8-8.2-2.7-10.2l-25.1-14.5
			c1.5-4.2,2.3-8.7,2.3-13.3c0-4.7-0.8-9.1-2.3-13.3l118-68.1c5.9,6.8,13.9,11.6,23.1,13.4V109c0,4.1,3.4,7.5,7.5,7.5
			c4.1,0,7.5-3.4,7.5-7.5V80.1c9.2-1.7,17.2-6.6,23.1-13.4l118,68.1c-1.5,4.2-2.3,8.6-2.3,13.3c0,4.7,0.8,9.2,2.3,13.3L379.5,176
			c-3.6,2.1-4.8,6.7-2.7,10.2c1.4,2.4,3.9,3.8,6.5,3.8c1.3,0,2.6-0.3,3.7-1l25.1-14.5c5.9,6.8,13.9,11.6,23.1,13.4v136.3
			c-9.2,1.7-17.2,6.6-23.1,13.3L387.1,323c-3.6-2.1-8.2-0.8-10.2,2.7c-2.1,3.6-0.8,8.2,2.7,10.2l25,14.5c-1.5,4.2-2.3,8.7-2.3,13.4
			c0,4.7,0.8,9.2,2.3,13.3L286.6,445.3z M442.7,389.2c-14,0-25.4-11.4-25.4-25.4c0-14,11.4-25.4,25.4-25.4c14,0,25.4,11.4,25.4,25.4
			C468.1,377.8,456.7,389.2,442.7,389.2z"/>
		<path d="M318.8,333.5h-22.3c-4.1,0-7.5,3.4-7.5,7.5s3.4,7.5,7.5,7.5h22.3c4.1,0,7.5-3.4,7.5-7.5S323,333.5,318.8,333.5z"/>
		<path d="M318.8,362.9H193.2c-4.1,0-7.5,3.4-7.5,7.5s3.4,7.5,7.5,7.5h125.6c4.1,0,7.5-3.4,7.5-7.5S323,362.9,318.8,362.9z"/>
		<path d="M193.2,348.5h0.1c4.1,0,7.5-3.4,7.5-7.5s-3.4-7.5-7.5-7.5h-0.1c-4.1,0-7.5,3.4-7.5,7.5S189,348.5,193.2,348.5z"/>
		<path d="M219.3,348.5c4.1,0,7.5-3.4,7.5-7.5s-3.4-7.5-7.5-7.5h-0.1c-4.1,0-7.5,3.4-7.5,7.5s3.4,7.5,7.5,7.5H219.3z"/>
		<path d="M245.2,348.5c4.1,0,7.5-3.4,7.5-7.5s-3.4-7.5-7.5-7.5h-0.1c-4.1,0-7.5,3.4-7.5,7.5s3.4,7.5,7.5,7.5H245.2z"/>
	</g>
</g>
</svg>
