<?xml version="1.0" encoding="utf-8"?>
<!-- Generator: Adobe Illustrator 28.2.0, SVG Export Plug-In . SVG Version: 6.00 Build 0)  -->
<svg version="1.1" id="Outline" xmlns="http://www.w3.org/2000/svg" xmlns:xlink="http://www.w3.org/1999/xlink" x="0px" y="0px"
	 viewBox="0 0 32 32" style="enable-background:new 0 0 32 32;" xml:space="preserve">
<style type="text/css">
	.st0{fill:#EC6A2A;}
	.st1{fill-rule:evenodd;clip-rule:evenodd;}
</style>
<circle class="st0" cx="16" cy="17.5" r="3"/>
<polygon class="st0" points="7,6.2 8.2,8.6 10.8,8.9 8.9,10.8 9.3,13.3 7,12.1 4.7,13.3 5.1,10.8 3.2,8.9 5.8,8.6 "/>
<polygon class="st0" points="25,6.2 26.2,8.6 28.8,8.9 26.9,10.8 27.3,13.3 25,12.1 22.7,13.3 23.1,10.8 21.2,8.9 23.8,8.6 "/>
<polygon class="st0" points="16,2.7 17.3,5.4 20.3,5.8 18.1,7.9 18.7,10.9 16,9.5 13.3,10.9 13.9,7.9 11.7,5.8 14.7,5.4 "/>
<g>
	<path class="st1" d="M27.7,15.5c-0.3,0-0.5,0.3-0.4,0.6c0.1,0.6,0.2,1.3,0.2,1.9c0,3.5-1.6,6.7-4.1,8.8c-0.4-2.9-2.5-5.2-5.2-6
		c1.1-0.7,1.8-1.9,1.8-3.3c0-2.2-1.8-4-4-4s-4,1.8-4,4c0,1.4,0.7,2.6,1.8,3.3c-2.7,0.8-4.7,3.1-5.2,6c-2.5-2.1-4.1-5.3-4.1-8.8
		c0-0.6,0.1-1.3,0.2-1.9c0-0.3-0.1-0.5-0.4-0.6c-0.3,0-0.5,0.1-0.6,0.4c-0.1,0.7-0.2,1.4-0.2,2.1c0,6.1,4.4,11.3,10.4,12.3
		c0,0,0.1,0,0.1,0c0.2,0,0.5-0.2,0.5-0.4c0-0.3-0.1-0.5-0.4-0.6c-1.7-0.3-3.2-0.9-4.6-1.8c0.2-3.4,3-6,6.5-6s6.2,2.6,6.5,6
		c-1.3,0.9-2.9,1.5-4.6,1.8c-0.3,0-0.5,0.3-0.4,0.6c0,0.2,0.3,0.4,0.5,0.4c0,0,0.1,0,0.1,0c6-1,10.4-6.2,10.4-12.3
		c0-0.7-0.1-1.4-0.2-2.1C28.3,15.6,28,15.5,27.7,15.5z M13,17.5c0-1.7,1.3-3,3-3s3,1.3,3,3s-1.3,3-3,3S13,19.2,13,17.5z"/>
	<path class="st1" d="M21.5,5.5c-0.1-0.2-0.2-0.3-0.4-0.3l-3.2-0.5l-1.4-2.9c-0.2-0.3-0.7-0.3-0.9,0l-1.4,2.9l-3.2,0.5
		c-0.2,0-0.3,0.2-0.4,0.3c-0.1,0.2,0,0.4,0.1,0.5L13,8.2l-0.5,3.2c0,0.2,0,0.4,0.2,0.5c0.2,0.1,0.4,0.1,0.5,0l2.9-1.5l2.9,1.5
		c0.1,0,0.2,0.1,0.2,0.1c0.1,0,0.2,0,0.3-0.1c0.2-0.1,0.2-0.3,0.2-0.5L19,8.2L21.3,6C21.5,5.9,21.5,5.7,21.5,5.5z M18.2,7.7
		C18,7.8,18,8,18,8.2l0.4,2.4l-2.2-1.2c-0.1,0-0.2-0.1-0.2-0.1s-0.2,0-0.2,0.1l-2.2,1.2L14,8.2c0-0.2,0-0.3-0.1-0.4L12.1,6l2.5-0.4
		c0.2,0,0.3-0.1,0.4-0.3L16,3.1l1.1,2.2c0.1,0.1,0.2,0.2,0.4,0.3L19.9,6L18.2,7.7z"/>
	<path class="st1" d="M4,13.5c0,0.2,0,0.4,0.2,0.5c0.2,0.1,0.4,0.1,0.5,0L7,12.9l2.2,1.2c0.1,0,0.2,0.1,0.2,0.1c0.1,0,0.2,0,0.3-0.1
		c0.2-0.1,0.2-0.3,0.2-0.5L9.5,11l1.8-1.8c0.1-0.1,0.2-0.3,0.1-0.5c-0.1-0.2-0.2-0.3-0.4-0.3L8.6,8L7.4,5.8c-0.2-0.3-0.7-0.3-0.9,0
		L5.4,8L2.9,8.4c-0.2,0-0.3,0.2-0.4,0.3c-0.1,0.2,0,0.4,0.1,0.5L4.5,11L4,13.5z M4.1,9.3L5.8,9C6,9,6.1,8.9,6.2,8.7L7,7.1l0.8,1.6
		C7.9,8.9,8,9,8.2,9l1.8,0.3l-1.3,1.2c-0.1,0.1-0.2,0.3-0.1,0.4l0.3,1.8l-1.6-0.8c-0.1,0-0.2-0.1-0.2-0.1s-0.2,0-0.2,0.1l-1.6,0.8
		l0.3-1.8c0-0.2,0-0.3-0.1-0.4L4.1,9.3z"/>
	<path class="st1" d="M29.1,8.4L26.6,8l-1.1-2.3c-0.2-0.3-0.7-0.3-0.9,0L23.4,8l-2.5,0.4c-0.2,0-0.3,0.2-0.4,0.3
		c-0.1,0.2,0,0.4,0.1,0.5l1.8,1.8L22,13.5c0,0.2,0,0.4,0.2,0.5c0.2,0.1,0.4,0.1,0.5,0l2.2-1.2l2.2,1.2c0.1,0,0.2,0.1,0.2,0.1
		c0.1,0,0.2,0,0.3-0.1c0.2-0.1,0.2-0.3,0.2-0.5L27.5,11l1.8-1.8c0.1-0.1,0.2-0.3,0.1-0.5C29.4,8.6,29.3,8.4,29.1,8.4z M26.7,10.5
		c-0.1,0.1-0.2,0.3-0.1,0.4l0.3,1.8l-1.6-0.8c-0.1,0-0.2-0.1-0.2-0.1s-0.2,0-0.2,0.1l-1.6,0.8l0.3-1.8c0-0.2,0-0.3-0.1-0.4l-1.3-1.2
		L23.8,9c0.2,0,0.3-0.1,0.4-0.3L25,7.1l0.8,1.6C25.9,8.9,26,9,26.2,9l1.8,0.3L26.7,10.5z"/>
</g>
<circle cx="16" cy="30" r="0.5"/>
</svg>
