<?xml version="1.0"?>
<svg xmlns="http://www.w3.org/2000/svg" id="icons" viewBox="0 0 60 60" width="512" height="512"><path d="M58,0H13.4A13.274,13.274,0,0,0,0,12.763,13,13,0,0,0,13,26H21.33a9.939,9.939,0,0,0-.872,2H2a2,2,0,0,0-2,2v8a2,2,0,0,0,2,2H23.765c.075.094.155.183.235.274V42H20a6.006,6.006,0,0,0-6,6v9a3,3,0,0,0,3,3H43a3,3,0,0,0,3-3V48a6.006,6.006,0,0,0-6-6H36V40.274c.08-.091.16-.18.235-.274H46.6A13.274,13.274,0,0,0,60,27.237,13,13,0,0,0,47,14H13a1,1,0,0,1-1-1,.979.979,0,0,1,.307-.713A.959.959,0,0,1,13,12H58a2,2,0,0,0,2-2V2A2,2,0,0,0,58,0ZM28,28a1,1,0,0,0,1-1V22h2v5a1,1,0,0,0,2,0V23.593A7.994,7.994,0,0,1,38,31H22a8.071,8.071,0,0,1,5-7.417V27A1,1,0,0,0,28,28ZM26,47.46a5.965,5.965,0,0,0,8,0V50a1,1,0,0,1-1,1H27a1,1,0,0,1-1-1ZM34,43a4,4,0,0,1-8,0V41.918a7.935,7.935,0,0,0,8,0Zm-4-2a6.006,6.006,0,0,1-6-6V33H36v2A6.006,6.006,0,0,1,30,41Zm8.653-15H47a1,1,0,0,1,1,1,.977.977,0,0,1-.307.713A.959.959,0,0,1,47,28H39.541A9.825,9.825,0,0,0,38.653,26ZM2,38V30H20.054c-.032.33-.054.662-.054,1a1,1,0,0,0,0,2h2v2a7.945,7.945,0,0,0,.589,3ZM16,57V48a4,4,0,0,1,4-4V58H17A1,1,0,0,1,16,57Zm28-9v9a1,1,0,0,1-1,1H40V44A4,4,0,0,1,44,48ZM38,58H22V44h2v6a3,3,0,0,0,3,3h6a3,3,0,0,0,3-3V44h2ZM58,10H13a3.015,3.015,0,0,0-3,3,3,3,0,0,0,3,3H47A11,11,0,0,1,58,27.2,11.264,11.264,0,0,1,46.6,38H37.411A7.945,7.945,0,0,0,38,35V33h2a1,1,0,0,0,0-2c0-.336-.017-.67-.049-1H47a3.015,3.015,0,0,0,3-3,3,3,0,0,0-3-3H37.129c-.02-.021-.038-.044-.059-.064a9.938,9.938,0,0,0-4.152-2.5A2,2,0,0,0,31,20H29a2.006,2.006,0,0,0-1.917,1.428A9.939,9.939,0,0,0,22.841,24H13A11,11,0,0,1,2,12.8,11.264,11.264,0,0,1,13.4,2H58Z"/><path d="M51,7h4a1,1,0,0,0,0-2H51a1,1,0,0,0,0,2Z"/><path d="M41,7h4a1,1,0,0,0,0-2H41a1,1,0,0,0,0,2Z"/><path d="M37,21h4a1,1,0,0,0,0-2H37a1,1,0,0,0,0,2Z"/><path d="M31,7h4a1,1,0,0,0,0-2H31a1,1,0,0,0,0,2Z"/><path d="M21,7h4a1,1,0,0,0,0-2H21a1,1,0,0,0,0,2Z"/><path d="M19,21h4a1,1,0,0,0,0-2H19a1,1,0,0,0,0,2Z"/><path d="M10.715,5.331A1,1,0,0,0,11,7.29a1.044,1.044,0,0,0,.285-.041A6.015,6.015,0,0,1,13,7h2a1,1,0,0,0,0-2H13A8.014,8.014,0,0,0,10.715,5.331Z"/><path d="M6.436,8.427a7.926,7.926,0,0,0-1.1,2.288,1,1,0,0,0,.674,1.244A1.05,1.05,0,0,0,6.29,12a1,1,0,0,0,.959-.715,5.967,5.967,0,0,1,.825-1.712A1,1,0,1,0,6.436,8.427Z"/><path d="M7.249,14.715a1,1,0,0,0-1.918.57,7.926,7.926,0,0,0,1.1,2.288,1,1,0,0,0,1.638-1.146A5.967,5.967,0,0,1,7.249,14.715Z"/><path d="M10.715,20.669A8.014,8.014,0,0,0,13,21h1a1,1,0,0,0,0-2H13a6.015,6.015,0,0,1-1.715-.249,1,1,0,0,0-.57,1.918Z"/><path d="M10.29,33h-4a1,1,0,1,0,0,2h4a1,1,0,0,0,0-2Z"/><path d="M16,33H15a1,1,0,0,0,0,2h1a1,1,0,0,0,0-2Z"/><path d="M50.005,32.751A6.015,6.015,0,0,1,48.29,33h-2a1,1,0,1,0,0,2h2a8.014,8.014,0,0,0,2.285-.331,1,1,0,0,0-.57-1.918Z"/><path d="M54.034,32a1,1,0,0,0,.821-.428,7.954,7.954,0,0,0,1.1-2.287,1,1,0,0,0-1.918-.57,5.96,5.96,0,0,1-.826,1.713A1,1,0,0,0,54.034,32Z"/><path d="M54.041,25.285A1,1,0,0,0,55,26a1.05,1.05,0,0,0,.285-.041,1,1,0,0,0,.674-1.244,7.954,7.954,0,0,0-1.1-2.287,1,1,0,0,0-1.64,1.144A5.96,5.96,0,0,1,54.041,25.285Z"/><path d="M46.29,21h2a6.015,6.015,0,0,1,1.715.249,1.05,1.05,0,0,0,.285.041,1,1,0,0,0,.285-1.959A8.014,8.014,0,0,0,48.29,19h-2a1,1,0,1,0,0,2Z"/></svg>
