<svg id="Layer_1" enable-background="new 0 0 242.333 239.507" height="512" viewBox="0 0 242.333 239.507" width="512" xmlns="http://www.w3.org/2000/svg"><g><path d="m82.995 52.134c10.989 5.805 24.6 1.602 30.404-9.386.479-.908.884-1.834 1.229-2.772l-39.422-20.824c-.58.813-1.117 1.67-1.597 2.577-5.804 10.989-1.601 24.601 9.386 30.405z"/><path d="m75.441 16.789.356.188 40.905 21.608.354.187c1.475.779 3.299.216 4.078-1.259.778-1.473.216-3.299-1.258-4.078l-.368-.194c3.415-6.889 3.077-14.701-.274-21.063l-.86 1.628c-.616 1.166-2.06 1.613-3.226.997s-1.612-2.062-.996-3.228l2.029-3.841c-1.309-1.495-2.824-2.84-4.538-3.984l-2.684 5.082c-.616 1.166-2.06 1.613-3.226.997-1.167-.617-1.612-2.062-.996-3.228l2.684-5.081c-1.911-.771-3.876-1.264-5.848-1.502l-2.029 3.841c-.616 1.166-2.06 1.613-3.228.996-1.166-.616-1.61-2.061-.995-3.227l.859-1.628c-7.143.819-13.786 4.943-17.55 11.646l-.369-.195c-1.473-.778-3.298-.213-4.076 1.261-.78 1.475-.217 3.298 1.256 4.077z"/><path d="m112.333 208.507-18 31h148l-9-31-23-9-15-33-32-10-2.597 3.153c-6.871-5.413-14.406-11.35-14.406-11.35l-9.507 12.067-5.248-1.889-1.464 1.859-14.668-11.609c1.331-1.815 1.898-4.174 1.35-6.538l-8.632-37.24-3.656-37.505c.263-3.004-1.256-6.013-4.091-7.51l-.871-.46c-1.813 7.291-3.788 16.349-4.416 23.376-.336 3.756-1.804 8.998-3.767 14.655l.928 9.517c.033.347.09.69.169 1.03l6.382 27.533-17.151-13.574.646-2.159 1.778-5.941c-.135-.04-11.305-3.393-21.648-7.114l-4.358-3.449 2.929-7.393c11.706 4.526 26.792 9.055 27.454 9.253l2.867-9.58c-.158-.047-15.289-4.59-26.637-8.97l8.451-21.326 9.493-10.812c-.248-.121-.5-.235-.744-.365-4.027-2.127-7.293-5.261-9.592-9.059l-1.273-.672-.673 19.802-8.451 21.326c-11.268-4.581-25.405-11.637-25.552-11.71l-4.41 8.818-.018-.015-8.624-6.825 10.454-23.009 13.607 2.066c3.211-4.918 6.338-10.337 8.824-14.843l-26.01-3.95c-.02-.003-.04-.003-.06-.006-.207-.03-.414-.049-.622-.062-.058-.004-.117-.011-.175-.013-.204-.009-.406-.006-.609.001-.065.002-.13.001-.194.004-.184.011-.367.032-.549.056-.08.01-.162.016-.241.029-.166.026-.328.063-.492.1-.091.02-.183.036-.274.06-.159.041-.314.094-.47.145-.088.029-.178.053-.264.085-.167.061-.33.133-.493.206-.069.031-.141.057-.209.09-.181.087-.357.184-.531.284-.045.026-.093.049-.138.076-.186.111-.365.233-.541.36-.031.022-.063.041-.094.064-.171.126-.335.263-.496.403-.034.029-.069.056-.102.085-.141.127-.273.262-.406.399-.05.052-.103.101-.152.154-.105.115-.202.237-.3.359-.07.086-.142.17-.208.259-.072.097-.138.2-.206.301-.084.123-.168.246-.244.375-.049.082-.093.169-.139.254-.084.153-.166.306-.24.465-.011.023-.025.045-.035.068l-12.07 26.567-9.647 12.244 5.499 4.332 3.226-4.094c.766.976 1.767 1.791 2.975 2.339 1.074.488 2.198.719 3.305.719 1.631 0 3.214-.515 4.547-1.435l9.876 7.816 9.992 7.908c-5.814-2.724-10.202-4.914-10.283-4.955l-2.778 5.555-1.694 3.388c.053.026.214.107.454.226 2.569 1.275 15.252 7.522 25.885 11.838l-3.896 9.832c-15.679-6.366-23.682-12.193-24.692-12.954-.516 2.464-.738 5.269-.374 7.534l2.825 48.963-20.19 52.141c-2.493 6.438.706 13.678 7.143 16.17 1.484.575 3.01.847 4.511.847 5.012 0 9.741-3.035 11.659-7.989l21.167-54.667c.646-1.666.926-3.45.823-5.233l-1.854-32.14 22.98 29.951-18.014 56.44c-2.099 6.577 1.531 13.61 8.107 15.709 1.265.403 2.544.596 3.804.595 5.294 0 10.21-3.39 11.905-8.702l20-62.666c1.245-3.9.501-8.162-1.991-11.41l-18.444-24.04c-2.069-.253-11.653-1.663-26.581-7.435l3.899-9.839c4.274 1.653 8.995 3.305 13.304 4.747l11.475 9.081 22.702 17.967c.922 3.5 4.042 5.867 7.524 5.954l17.18 13.597-1.464 1.859 3.065 4.66-9.507 12.067s9.576 7.545 16.982 13.379l-4.717 7.945zm-79.834-125.414c2.867 1.422 15.299 7.528 25.748 11.769l-2.597 6.553z"/></g></svg>