<svg height="512" viewBox="0 0 32 32" width="512" xmlns="http://www.w3.org/2000/svg"><g id="_x31_1"><path d="m5.5542603 20h6.8910522l-.5767822-2h-5.7375489z"/><path d="m3.8240967 26h10.3516235l-.5767822-2h-9.1981201z"/><path d="m13.3105469 23-.5768433-2h-7.4677734l-.5767212 2z"/><path d="m15 27h-12c-.5522461 0-1 .4472656-1 1v1c0 .5527344.4477539 1 1 1h12c.5522461 0 1-.4472656 1-1v-1c0-.5527344-.4477539-1-1-1z"/><path d="m11.5801392 17-.3672485-1.2734375c-.2548829-1.0166016-1.1645509-1.7265625-2.2128907-1.7265625s-1.9580078.7099609-2.2036133 1.6923828l-.3770752 1.3076172z"/><path d="m29 17h-14c-.5522461 0-1 .4472656-1 1v3c0 .5527344.4477539 1 1 1h2v7c0 .5522461.4477539 1 1 1 .5523071 0 1-.4477539 1-1v-7h6v7c0 .5522461.4476929 1 1 1s1-.4477539 1-1v-7h2c.5522461 0 1-.4472656 1-1v-3c0-.5527344-.4477539-1-1-1zm-13 4h-1l1-3h1zm2 0h-1l1-3h1zm1 0 1-3h1l-1 3zm2 0 1-3h1l-1 3zm3 0h-1l1-3h1zm2 0h-1l1-3h1zm2 0h-1l1-3h1z"/><path d="m15.5 13.5c0-.2763672.2236328-.5.5-.5s.5.2236328.5.5v2.5h8.5l-5-14h-3.5v.5c0 .2763672-.2236328.5-.5.5s-.5-.2236328-.5-.5v-.5h-3.5l-3.9838257 11.1547241c.312439-.0966186.6416626-.1547241.9838257-.1547241 1.5073242 0 2.8164063 1.0214844 3.1831055 2.4833984l.1490478.5166016h3.1678467zm0-9c0-.2763672.2236328-.5.5-.5s.5.2236328.5.5v2c0 .2763672-.2236328.5-.5.5s-.5-.2236328-.5-.5zm0 4c0-.2763672.2236328-.5.5-.5s.5.2236328.5.5v3c0 .2763672-.2236328.5-.5.5s-.5-.2236328-.5-.5z"/></g></svg>